<mxfile host="drawio-plugin" modified="2023-05-22T06:39:30.552Z" agent="5.0 (Macintosh; Intel Mac OS X 10_15_7) AppleWebKit/537.36 (KHTML, like Gecko) Chrome/104.0.5112.102 Safari/537.36" etag="9hrFXrlpQ6uEbcqHTr4b" version="20.5.3" type="embed"><diagram name="examples" id="Y_M5OLiKeaglrYkt3uzy"><mxGraphModel dx="1829" dy="774" grid="0" gridSize="10" guides="1" tooltips="1" connect="1" arrows="1" fold="1" page="0" pageScale="1" pageWidth="850" pageHeight="1100" math="0" shadow="0"><root><mxCell id="0"/><mxCell id="1" parent="0"/><mxCell id="eZej8PWN4Uasvbc47IZ0-36" style="edgeStyle=orthogonalEdgeStyle;rounded=0;orthogonalLoop=1;jettySize=auto;html=1;" parent="1" source="eZej8PWN4Uasvbc47IZ0-6" target="eZej8PWN4Uasvbc47IZ0-31" edge="1"><mxGeometry relative="1" as="geometry"><Array as="points"><mxPoint x="460" y="400"/><mxPoint x="275" y="400"/></Array></mxGeometry></mxCell><mxCell id="eZej8PWN4Uasvbc47IZ0-6" value="apache.org/sum_list" style="rounded=0;whiteSpace=wrap;html=1;" parent="1" vertex="1"><mxGeometry x="400" y="300" width="120" height="30" as="geometry"/></mxCell><mxCell id="eZej8PWN4Uasvbc47IZ0-7" value="charity/total_donation" style="text;html=1;align=center;verticalAlign=middle;resizable=0;points=[];autosize=1;strokeColor=none;fillColor=none;" parent="1" vertex="1"><mxGeometry x="230" y="300" width="140" height="30" as="geometry"/></mxCell><mxCell id="eZej8PWN4Uasvbc47IZ0-37" style="edgeStyle=orthogonalEdgeStyle;rounded=0;orthogonalLoop=1;jettySize=auto;html=1;exitX=0.5;exitY=1;exitDx=0;exitDy=0;" parent="1" source="eZej8PWN4Uasvbc47IZ0-8" target="eZej8PWN4Uasvbc47IZ0-34" edge="1"><mxGeometry relative="1" as="geometry"><Array as="points"><mxPoint x="580" y="400"/><mxPoint x="635" y="400"/></Array></mxGeometry></mxCell><mxCell id="eZej8PWN4Uasvbc47IZ0-8" value="charity/donation_detail" style="rounded=0;whiteSpace=wrap;html=1;" parent="1" vertex="1"><mxGeometry x="520" y="300" width="120" height="30" as="geometry"/></mxCell><mxCell id="eZej8PWN4Uasvbc47IZ0-30" value="_INS" style="rounded=0;whiteSpace=wrap;html=1;" parent="1" vertex="1"><mxGeometry x="340" y="450" width="70" height="30" as="geometry"/></mxCell><mxCell id="eZej8PWN4Uasvbc47IZ0-31" value="apache.org/sum_list" style="text;html=1;align=center;verticalAlign=middle;resizable=0;points=[];autosize=1;strokeColor=none;fillColor=none;" parent="1" vertex="1"><mxGeometry x="210" y="450" width="130" height="30" as="geometry"/></mxCell><mxCell id="eZej8PWN4Uasvbc47IZ0-32" value="def sum(list&amp;lt;int&amp;gt;) -&amp;gt; int {...}" style="rounded=0;whiteSpace=wrap;html=1;" parent="1" vertex="1"><mxGeometry x="410" y="450" width="150" height="30" as="geometry"/></mxCell><mxCell id="eZej8PWN4Uasvbc47IZ0-33" value="_DAT" style="rounded=0;whiteSpace=wrap;html=1;" parent="1" vertex="1"><mxGeometry x="700" y="450" width="70" height="30" as="geometry"/></mxCell><mxCell id="eZej8PWN4Uasvbc47IZ0-34" value="charity/donation_detail" style="text;html=1;align=center;verticalAlign=middle;resizable=0;points=[];autosize=1;strokeColor=none;fillColor=none;" parent="1" vertex="1"><mxGeometry x="565" y="450" width="140" height="30" as="geometry"/></mxCell><mxCell id="eZej8PWN4Uasvbc47IZ0-35" value="[1, 2, 2, 3, 1, 2]" style="rounded=0;whiteSpace=wrap;html=1;" parent="1" vertex="1"><mxGeometry x="770" y="450" width="150" height="30" as="geometry"/></mxCell><mxCell id="eZej8PWN4Uasvbc47IZ0-38" value="Referentially Opaque Function" style="text;html=1;align=center;verticalAlign=middle;resizable=0;points=[];autosize=1;strokeColor=none;fillColor=none;" parent="1" vertex="1"><mxGeometry x="410" y="535" width="190" height="30" as="geometry"/></mxCell><mxCell id="eZej8PWN4Uasvbc47IZ0-39" value="" style="group" parent="1" connectable="0" vertex="1"><mxGeometry x="-520" y="60" width="230" height="30" as="geometry"/></mxCell><mxCell id="eZej8PWN4Uasvbc47IZ0-2" value="Operator" style="rounded=0;whiteSpace=wrap;html=1;" parent="eZej8PWN4Uasvbc47IZ0-39" vertex="1"><mxGeometry x="90" width="70" height="30" as="geometry"/></mxCell><mxCell id="eZej8PWN4Uasvbc47IZ0-4" value="Named Data" style="text;html=1;align=center;verticalAlign=middle;resizable=0;points=[];autosize=1;strokeColor=none;fillColor=none;" parent="eZej8PWN4Uasvbc47IZ0-39" vertex="1"><mxGeometry width="90" height="30" as="geometry"/></mxCell><mxCell id="eZej8PWN4Uasvbc47IZ0-5" value="Operand" style="rounded=0;whiteSpace=wrap;html=1;" parent="eZej8PWN4Uasvbc47IZ0-39" vertex="1"><mxGeometry x="160" width="70" height="30" as="geometry"/></mxCell><mxCell id="eZej8PWN4Uasvbc47IZ0-40" value="" style="group" parent="1" connectable="0" vertex="1"><mxGeometry x="-430" y="290" width="480" height="255" as="geometry"/></mxCell><mxCell id="eZej8PWN4Uasvbc47IZ0-28" value="" style="group" parent="eZej8PWN4Uasvbc47IZ0-40" connectable="0" vertex="1"><mxGeometry width="480" height="180" as="geometry"/></mxCell><mxCell id="eZej8PWN4Uasvbc47IZ0-9" value="opt/plus" style="rounded=0;whiteSpace=wrap;html=1;" parent="eZej8PWN4Uasvbc47IZ0-28" vertex="1"><mxGeometry x="180" width="70" height="30" as="geometry"/></mxCell><mxCell id="eZej8PWN4Uasvbc47IZ0-10" value="cal/sqr(2)" style="text;html=1;align=center;verticalAlign=middle;resizable=0;points=[];autosize=1;strokeColor=none;fillColor=none;" parent="eZej8PWN4Uasvbc47IZ0-28" vertex="1"><mxGeometry x="100" width="70" height="30" as="geometry"/></mxCell><mxCell id="eZej8PWN4Uasvbc47IZ0-11" value="num/2" style="rounded=0;whiteSpace=wrap;html=1;" parent="eZej8PWN4Uasvbc47IZ0-28" vertex="1"><mxGeometry x="250" width="70" height="30" as="geometry"/></mxCell><mxCell id="eZej8PWN4Uasvbc47IZ0-18" value="" style="group" parent="eZej8PWN4Uasvbc47IZ0-28" connectable="0" vertex="1"><mxGeometry y="150" width="220" height="30" as="geometry"/></mxCell><mxCell id="eZej8PWN4Uasvbc47IZ0-12" value="_INS" style="rounded=0;whiteSpace=wrap;html=1;" parent="eZej8PWN4Uasvbc47IZ0-18" vertex="1"><mxGeometry x="80" width="70" height="30" as="geometry"/></mxCell><mxCell id="eZej8PWN4Uasvbc47IZ0-13" value="opt/plus" style="text;html=1;align=center;verticalAlign=middle;resizable=0;points=[];autosize=1;strokeColor=none;fillColor=none;" parent="eZej8PWN4Uasvbc47IZ0-18" vertex="1"><mxGeometry width="70" height="30" as="geometry"/></mxCell><mxCell id="eZej8PWN4Uasvbc47IZ0-14" value="square" style="rounded=0;whiteSpace=wrap;html=1;" parent="eZej8PWN4Uasvbc47IZ0-18" vertex="1"><mxGeometry x="150" width="70" height="30" as="geometry"/></mxCell><mxCell id="eZej8PWN4Uasvbc47IZ0-23" style="edgeStyle=orthogonalEdgeStyle;rounded=0;orthogonalLoop=1;jettySize=auto;html=1;" parent="eZej8PWN4Uasvbc47IZ0-28" source="eZej8PWN4Uasvbc47IZ0-9" target="eZej8PWN4Uasvbc47IZ0-13" edge="1"><mxGeometry relative="1" as="geometry"><Array as="points"><mxPoint x="215" y="90"/><mxPoint x="35" y="90"/></Array></mxGeometry></mxCell><mxCell id="eZej8PWN4Uasvbc47IZ0-19" value="" style="group" parent="eZej8PWN4Uasvbc47IZ0-28" connectable="0" vertex="1"><mxGeometry x="260" y="150" width="220" height="30" as="geometry"/></mxCell><mxCell id="eZej8PWN4Uasvbc47IZ0-15" value="_DAT" style="rounded=0;whiteSpace=wrap;html=1;" parent="eZej8PWN4Uasvbc47IZ0-19" vertex="1"><mxGeometry x="80" width="70" height="30" as="geometry"/></mxCell><mxCell id="eZej8PWN4Uasvbc47IZ0-16" value="num/2" style="text;html=1;align=center;verticalAlign=middle;resizable=0;points=[];autosize=1;strokeColor=none;fillColor=none;" parent="eZej8PWN4Uasvbc47IZ0-19" vertex="1"><mxGeometry x="5" width="60" height="30" as="geometry"/></mxCell><mxCell id="eZej8PWN4Uasvbc47IZ0-17" value="2" style="rounded=0;whiteSpace=wrap;html=1;" parent="eZej8PWN4Uasvbc47IZ0-19" vertex="1"><mxGeometry x="150" width="70" height="30" as="geometry"/></mxCell><mxCell id="eZej8PWN4Uasvbc47IZ0-24" style="edgeStyle=orthogonalEdgeStyle;rounded=0;orthogonalLoop=1;jettySize=auto;html=1;" parent="eZej8PWN4Uasvbc47IZ0-28" source="eZej8PWN4Uasvbc47IZ0-11" target="eZej8PWN4Uasvbc47IZ0-16" edge="1"><mxGeometry relative="1" as="geometry"><Array as="points"><mxPoint x="285" y="120"/><mxPoint x="285" y="120"/></Array></mxGeometry></mxCell><mxCell id="eZej8PWN4Uasvbc47IZ0-29" value="Referentially Transparent Function" style="text;html=1;align=center;verticalAlign=middle;resizable=0;points=[];autosize=1;strokeColor=none;fillColor=none;" parent="eZej8PWN4Uasvbc47IZ0-40" vertex="1"><mxGeometry x="85" y="225" width="210" height="30" as="geometry"/></mxCell><mxCell id="eZej8PWN4Uasvbc47IZ0-64" value="" style="group" parent="1" connectable="0" vertex="1"><mxGeometry x="-340" y="650" width="980" height="310" as="geometry"/></mxCell><mxCell id="eZej8PWN4Uasvbc47IZ0-42" value="rowan/judge_algo" style="rounded=0;whiteSpace=wrap;html=1;" parent="eZej8PWN4Uasvbc47IZ0-64" vertex="1"><mxGeometry x="400" width="150" height="30" as="geometry"/></mxCell><mxCell id="eZej8PWN4Uasvbc47IZ0-43" value="rowan/whether_person_in_my_home" style="text;html=1;align=center;verticalAlign=middle;resizable=0;points=[];autosize=1;strokeColor=none;fillColor=none;" parent="eZej8PWN4Uasvbc47IZ0-64" vertex="1"><mxGeometry x="180" width="220" height="30" as="geometry"/></mxCell><mxCell id="eZej8PWN4Uasvbc47IZ0-45" value="rowan/home_person_list" style="rounded=0;whiteSpace=wrap;html=1;" parent="eZej8PWN4Uasvbc47IZ0-64" vertex="1"><mxGeometry x="550" width="160" height="30" as="geometry"/></mxCell><mxCell id="eZej8PWN4Uasvbc47IZ0-46" value="_INS" style="rounded=0;whiteSpace=wrap;html=1;" parent="eZej8PWN4Uasvbc47IZ0-64" vertex="1"><mxGeometry x="120" y="150" width="80" height="30" as="geometry"/></mxCell><mxCell id="eZej8PWN4Uasvbc47IZ0-47" value="rowan/judge_algo" style="text;html=1;align=center;verticalAlign=middle;resizable=0;points=[];autosize=1;strokeColor=none;fillColor=none;" parent="eZej8PWN4Uasvbc47IZ0-64" vertex="1"><mxGeometry y="150" width="120" height="30" as="geometry"/></mxCell><mxCell id="eZej8PWN4Uasvbc47IZ0-41" style="edgeStyle=orthogonalEdgeStyle;rounded=0;orthogonalLoop=1;jettySize=auto;html=1;" parent="eZej8PWN4Uasvbc47IZ0-64" source="eZej8PWN4Uasvbc47IZ0-42" target="eZej8PWN4Uasvbc47IZ0-47" edge="1"><mxGeometry relative="1" as="geometry"><Array as="points"><mxPoint x="460" y="100"/><mxPoint x="80" y="100"/></Array></mxGeometry></mxCell><mxCell id="eZej8PWN4Uasvbc47IZ0-48" value="def is_in(list&amp;lt;entry&amp;gt;) -&amp;gt; bool { return len(list) &amp;gt; 0}" style="rounded=0;whiteSpace=wrap;html=1;" parent="eZej8PWN4Uasvbc47IZ0-64" vertex="1"><mxGeometry x="200" y="150" width="270" height="30" as="geometry"/></mxCell><mxCell id="eZej8PWN4Uasvbc47IZ0-61" value="" style="group" parent="eZej8PWN4Uasvbc47IZ0-64" connectable="0" vertex="1"><mxGeometry x="20" y="280" width="410" height="30" as="geometry"/></mxCell><mxCell id="eZej8PWN4Uasvbc47IZ0-52" value="CVPR.org/Person_detector" style="text;html=1;align=center;verticalAlign=middle;resizable=0;points=[];autosize=1;strokeColor=none;fillColor=none;" parent="eZej8PWN4Uasvbc47IZ0-61" vertex="1"><mxGeometry width="170" height="30" as="geometry"/></mxCell><mxCell id="eZej8PWN4Uasvbc47IZ0-53" value="def PD(video) -&amp;gt; list {...}" style="rounded=0;whiteSpace=wrap;html=1;" parent="eZej8PWN4Uasvbc47IZ0-61" vertex="1"><mxGeometry x="250" width="160" height="30" as="geometry"/></mxCell><mxCell id="eZej8PWN4Uasvbc47IZ0-55" value="_INS" style="rounded=0;whiteSpace=wrap;html=1;" parent="eZej8PWN4Uasvbc47IZ0-61" vertex="1"><mxGeometry x="170" width="80" height="30" as="geometry"/></mxCell><mxCell id="eZej8PWN4Uasvbc47IZ0-62" value="" style="group" parent="eZej8PWN4Uasvbc47IZ0-64" connectable="0" vertex="1"><mxGeometry x="645" y="280" width="335" height="30" as="geometry"/></mxCell><mxCell id="eZej8PWN4Uasvbc47IZ0-56" value="rowan/home/camera/video" style="text;html=1;align=center;verticalAlign=middle;resizable=0;points=[];autosize=1;strokeColor=none;fillColor=none;" parent="eZej8PWN4Uasvbc47IZ0-62" vertex="1"><mxGeometry width="160" height="30" as="geometry"/></mxCell><mxCell id="eZej8PWN4Uasvbc47IZ0-57" value="frame1,2,3..." style="rounded=0;whiteSpace=wrap;html=1;" parent="eZej8PWN4Uasvbc47IZ0-62" vertex="1"><mxGeometry x="245" width="90" height="30" as="geometry"/></mxCell><mxCell id="eZej8PWN4Uasvbc47IZ0-58" value="_DAT" style="rounded=0;whiteSpace=wrap;html=1;" parent="eZej8PWN4Uasvbc47IZ0-62" vertex="1"><mxGeometry x="165" width="80" height="30" as="geometry"/></mxCell><mxCell id="eZej8PWN4Uasvbc47IZ0-63" value="" style="group" parent="eZej8PWN4Uasvbc47IZ0-64" connectable="0" vertex="1"><mxGeometry x="480" y="150" width="450" height="30" as="geometry"/></mxCell><mxCell id="eZej8PWN4Uasvbc47IZ0-49" value="CVPR.org/Person_detector" style="rounded=0;whiteSpace=wrap;html=1;" parent="eZej8PWN4Uasvbc47IZ0-63" vertex="1"><mxGeometry x="150" width="150" height="30" as="geometry"/></mxCell><mxCell id="eZej8PWN4Uasvbc47IZ0-50" value="rowan/home_person_list" style="text;html=1;align=center;verticalAlign=middle;resizable=0;points=[];autosize=1;strokeColor=none;fillColor=none;" parent="eZej8PWN4Uasvbc47IZ0-63" vertex="1"><mxGeometry width="150" height="30" as="geometry"/></mxCell><mxCell id="eZej8PWN4Uasvbc47IZ0-51" value="rowan/home/camera/video" style="rounded=0;whiteSpace=wrap;html=1;" parent="eZej8PWN4Uasvbc47IZ0-63" vertex="1"><mxGeometry x="300" width="150" height="30" as="geometry"/></mxCell><mxCell id="eZej8PWN4Uasvbc47IZ0-60" style="edgeStyle=orthogonalEdgeStyle;rounded=0;orthogonalLoop=1;jettySize=auto;html=1;" parent="eZej8PWN4Uasvbc47IZ0-64" source="eZej8PWN4Uasvbc47IZ0-49" target="eZej8PWN4Uasvbc47IZ0-52" edge="1"><mxGeometry relative="1" as="geometry"><Array as="points"><mxPoint x="700" y="230"/><mxPoint x="105" y="230"/></Array></mxGeometry></mxCell><mxCell id="eZej8PWN4Uasvbc47IZ0-44" style="edgeStyle=orthogonalEdgeStyle;rounded=0;orthogonalLoop=1;jettySize=auto;html=1;exitX=0.5;exitY=1;exitDx=0;exitDy=0;" parent="eZej8PWN4Uasvbc47IZ0-64" source="eZej8PWN4Uasvbc47IZ0-45" target="eZej8PWN4Uasvbc47IZ0-50" edge="1"><mxGeometry relative="1" as="geometry"><Array as="points"><mxPoint x="580" y="100"/><mxPoint x="635" y="100"/></Array></mxGeometry></mxCell><mxCell id="eZej8PWN4Uasvbc47IZ0-59" style="edgeStyle=orthogonalEdgeStyle;rounded=0;orthogonalLoop=1;jettySize=auto;html=1;" parent="eZej8PWN4Uasvbc47IZ0-64" source="eZej8PWN4Uasvbc47IZ0-51" target="eZej8PWN4Uasvbc47IZ0-56" edge="1"><mxGeometry relative="1" as="geometry"><Array as="points"><mxPoint x="850" y="230"/><mxPoint x="725" y="230"/></Array></mxGeometry></mxCell><mxCell id="qZct7pzW-FivZEmNotB3-33" value="" style="group" parent="1" connectable="0" vertex="1"><mxGeometry x="-335" y="1267" width="845" height="231" as="geometry"/></mxCell><mxCell id="qZct7pzW-FivZEmNotB3-22" value="" style="group" parent="qZct7pzW-FivZEmNotB3-33" connectable="0" vertex="1"><mxGeometry width="687" height="171" as="geometry"/></mxCell><mxCell id="qZct7pzW-FivZEmNotB3-1" value="" style="group" parent="qZct7pzW-FivZEmNotB3-22" connectable="0" vertex="1"><mxGeometry x="67" width="410" height="30" as="geometry"/></mxCell><mxCell id="qZct7pzW-FivZEmNotB3-11" value="" style="group" parent="qZct7pzW-FivZEmNotB3-1" connectable="0" vertex="1"><mxGeometry x="70" width="340" height="30" as="geometry"/></mxCell><mxCell id="qZct7pzW-FivZEmNotB3-2" value="data/nd-name" style="text;html=1;align=center;verticalAlign=middle;resizable=0;points=[];autosize=1;strokeColor=none;fillColor=none;" parent="qZct7pzW-FivZEmNotB3-11" vertex="1"><mxGeometry width="100" height="30" as="geometry"/></mxCell><mxCell id="qZct7pzW-FivZEmNotB3-3" value="[nd1, nd2, ...]" style="rounded=0;whiteSpace=wrap;html=1;" parent="qZct7pzW-FivZEmNotB3-11" vertex="1"><mxGeometry x="180" width="160" height="30" as="geometry"/></mxCell><mxCell id="qZct7pzW-FivZEmNotB3-4" value="FUNC" style="rounded=0;whiteSpace=wrap;html=1;" parent="qZct7pzW-FivZEmNotB3-11" vertex="1"><mxGeometry x="100" width="80" height="30" as="geometry"/></mxCell><mxCell id="qZct7pzW-FivZEmNotB3-12" value="" style="group" parent="qZct7pzW-FivZEmNotB3-22" connectable="0" vertex="1"><mxGeometry x="427" y="141" width="340" height="30" as="geometry"/></mxCell><mxCell id="qZct7pzW-FivZEmNotB3-13" value="data/nd-name" style="text;html=1;align=center;verticalAlign=middle;resizable=0;points=[];autosize=1;strokeColor=none;fillColor=none;" parent="qZct7pzW-FivZEmNotB3-12" vertex="1"><mxGeometry width="100" height="30" as="geometry"/></mxCell><mxCell id="qZct7pzW-FivZEmNotB3-14" value="[nd1, nd2, ...]" style="rounded=0;whiteSpace=wrap;html=1;" parent="qZct7pzW-FivZEmNotB3-12" vertex="1"><mxGeometry x="180" width="160" height="30" as="geometry"/></mxCell><mxCell id="qZct7pzW-FivZEmNotB3-15" value="FUNC" style="rounded=0;whiteSpace=wrap;html=1;" parent="qZct7pzW-FivZEmNotB3-12" vertex="1"><mxGeometry x="100" width="80" height="30" as="geometry"/></mxCell><mxCell id="qZct7pzW-FivZEmNotB3-16" value="" style="group" parent="qZct7pzW-FivZEmNotB3-22" connectable="0" vertex="1"><mxGeometry y="141" width="340" height="30" as="geometry"/></mxCell><mxCell id="qZct7pzW-FivZEmNotB3-17" value="data/nd-name" style="text;html=1;align=center;verticalAlign=middle;resizable=0;points=[];autosize=1;strokeColor=none;fillColor=none;" parent="qZct7pzW-FivZEmNotB3-16" vertex="1"><mxGeometry width="100" height="30" as="geometry"/></mxCell><mxCell id="qZct7pzW-FivZEmNotB3-18" value="[nd1, nd2, ...]" style="rounded=0;whiteSpace=wrap;html=1;" parent="qZct7pzW-FivZEmNotB3-16" vertex="1"><mxGeometry x="180" width="160" height="30" as="geometry"/></mxCell><mxCell id="qZct7pzW-FivZEmNotB3-19" value="FUNC" style="rounded=0;whiteSpace=wrap;html=1;" parent="qZct7pzW-FivZEmNotB3-16" vertex="1"><mxGeometry x="100" width="80" height="30" as="geometry"/></mxCell><mxCell id="qZct7pzW-FivZEmNotB3-20" style="edgeStyle=orthogonalEdgeStyle;rounded=0;orthogonalLoop=1;jettySize=auto;html=1;" parent="qZct7pzW-FivZEmNotB3-22" source="qZct7pzW-FivZEmNotB3-4" target="qZct7pzW-FivZEmNotB3-17" edge="1"><mxGeometry relative="1" as="geometry"><Array as="points"><mxPoint x="277" y="96"/><mxPoint x="50" y="96"/></Array></mxGeometry></mxCell><mxCell id="qZct7pzW-FivZEmNotB3-21" style="edgeStyle=orthogonalEdgeStyle;rounded=0;orthogonalLoop=1;jettySize=auto;html=1;" parent="qZct7pzW-FivZEmNotB3-22" source="qZct7pzW-FivZEmNotB3-3" target="qZct7pzW-FivZEmNotB3-13" edge="1"><mxGeometry relative="1" as="geometry"><Array as="points"><mxPoint x="397" y="156"/></Array></mxGeometry></mxCell><mxCell id="qZct7pzW-FivZEmNotB3-23" value="" style="group" parent="qZct7pzW-FivZEmNotB3-33" connectable="0" vertex="1"><mxGeometry x="464" y="171" width="340" height="30" as="geometry"/></mxCell><mxCell id="qZct7pzW-FivZEmNotB3-24" value="data/nd-name" style="text;html=1;align=center;verticalAlign=middle;resizable=0;points=[];autosize=1;strokeColor=none;fillColor=none;" parent="qZct7pzW-FivZEmNotB3-23" vertex="1"><mxGeometry width="100" height="30" as="geometry"/></mxCell><mxCell id="qZct7pzW-FivZEmNotB3-25" value="[nd1, nd2, ...]" style="rounded=0;whiteSpace=wrap;html=1;" parent="qZct7pzW-FivZEmNotB3-23" vertex="1"><mxGeometry x="180" width="160" height="30" as="geometry"/></mxCell><mxCell id="qZct7pzW-FivZEmNotB3-26" value="FUNC" style="rounded=0;whiteSpace=wrap;html=1;" parent="qZct7pzW-FivZEmNotB3-23" vertex="1"><mxGeometry x="100" width="80" height="30" as="geometry"/></mxCell><mxCell id="qZct7pzW-FivZEmNotB3-27" value="" style="group" parent="qZct7pzW-FivZEmNotB3-33" connectable="0" vertex="1"><mxGeometry x="505" y="201" width="340" height="30" as="geometry"/></mxCell><mxCell id="qZct7pzW-FivZEmNotB3-28" value="data/nd-name" style="text;html=1;align=center;verticalAlign=middle;resizable=0;points=[];autosize=1;strokeColor=none;fillColor=none;" parent="qZct7pzW-FivZEmNotB3-27" vertex="1"><mxGeometry width="100" height="30" as="geometry"/></mxCell><mxCell id="qZct7pzW-FivZEmNotB3-29" value="[nd1, nd2, ...]" style="rounded=0;whiteSpace=wrap;html=1;" parent="qZct7pzW-FivZEmNotB3-27" vertex="1"><mxGeometry x="180" width="160" height="30" as="geometry"/></mxCell><mxCell id="qZct7pzW-FivZEmNotB3-30" value="FUNC" style="rounded=0;whiteSpace=wrap;html=1;" parent="qZct7pzW-FivZEmNotB3-27" vertex="1"><mxGeometry x="100" width="80" height="30" as="geometry"/></mxCell><mxCell id="qZct7pzW-FivZEmNotB3-31" style="edgeStyle=orthogonalEdgeStyle;rounded=0;orthogonalLoop=1;jettySize=auto;html=1;entryX=0;entryY=0.733;entryDx=0;entryDy=0;entryPerimeter=0;" parent="qZct7pzW-FivZEmNotB3-33" source="qZct7pzW-FivZEmNotB3-3" target="qZct7pzW-FivZEmNotB3-24" edge="1"><mxGeometry relative="1" as="geometry"/></mxCell><mxCell id="qZct7pzW-FivZEmNotB3-32" style="edgeStyle=orthogonalEdgeStyle;rounded=0;orthogonalLoop=1;jettySize=auto;html=1;" parent="qZct7pzW-FivZEmNotB3-33" source="qZct7pzW-FivZEmNotB3-3" target="qZct7pzW-FivZEmNotB3-28" edge="1"><mxGeometry relative="1" as="geometry"><Array as="points"><mxPoint x="397" y="224"/></Array></mxGeometry></mxCell></root></mxGraphModel></diagram></mxfile>